<svg xmlns="http://www.w3.org/2000/svg" width="1440" height="900"><path d="M862,616L497,660L817,884Z" fill="#ffbbab" stroke="#ffbbab" stroke-width="1.51"/><path d="M497,660L509,909L817,884Z" fill="#fcbaaa" stroke="#fcbaaa" stroke-width="1.51"/><path d="M862,616L517,310L497,660Z" fill="#fbd0b4" stroke="#fbd0b4" stroke-width="1.51"/><path d="M862,616L817,284L517,310Z" fill="#fcd6b6" stroke="#fcd6b6" stroke-width="1.51"/><path d="M497,660L297,969L509,909Z" fill="#f5bfab" stroke="#f5bfab" stroke-width="1.51"/><path d="M509,909L497,1182L817,884Z" fill="#fcb5a6" stroke="#fcb5a6" stroke-width="1.51"/><path d="M252,550L297,969L497,660Z" fill="#f0c9b2" stroke="#f0c9b2" stroke-width="1.51"/><path d="M517,310L252,550L497,660Z" fill="#f2d9b8" stroke="#f2d9b8" stroke-width="1.51"/><path d="M297,969L497,1182L509,909Z" fill="#f5bca9" stroke="#f5bca9" stroke-width="1.51"/><path d="M862,616L1152,293L817,284Z" fill="#fccab2" stroke="#fccab2" stroke-width="1.51"/><path d="M817,884L1193,662L862,616Z" fill="#ffaea6" stroke="#ffaea6" stroke-width="1.51"/><path d="M1202,967L1193,662L817,884Z" fill="#ffa09f" stroke="#ffa09f" stroke-width="1.51"/><path d="M930,1256L1202,967L817,884Z" fill="#ffa19f" stroke="#ffa19f" stroke-width="1.51"/><path d="M497,1182L930,1256L817,884Z" fill="#ffafa4" stroke="#ffafa4" stroke-width="1.51"/><path d="M517,310L245,279L252,550Z" fill="#e8e4be" stroke="#e8e4be" stroke-width="1.51"/><path d="M250,-12L245,279L517,310Z" fill="#d7edc4" stroke="#d7edc4" stroke-width="1.51"/><path d="M1193,662L1152,293L862,616Z" fill="#ffb9ab" stroke="#ffb9ab" stroke-width="1.51"/><path d="M579,1585L890,1528L930,1256Z" fill="#ffaca3" stroke="#ffaca3" stroke-width="1.51"/><path d="M297,969L242,1179L497,1182Z" fill="#f1bfab" stroke="#f1bfab" stroke-width="1.51"/><path d="M-117,968L242,1179L297,969Z" fill="#e6bdae" stroke="#e6bdae" stroke-width="1.51"/><path d="M-15,648L297,969L252,550Z" fill="#e6c9b5" stroke="#e6c9b5" stroke-width="1.51"/><path d="M930,1256L1163,1226L1202,967Z" fill="#ff9b9c" stroke="#ff9b9c" stroke-width="1.51"/><path d="M-48,245L-15,648L252,550Z" fill="#dcdbbf" stroke="#dcdbbf" stroke-width="1.51"/><path d="M817,284L613,-15L517,310Z" fill="#e8e2be" stroke="#e8e2be" stroke-width="1.51"/><path d="M1152,293L886,35L817,284Z" fill="#eed3b7" stroke="#eed3b7" stroke-width="1.51"/><path d="M886,35L613,-15L817,284Z" fill="#e3dcbe" stroke="#e3dcbe" stroke-width="1.51"/><path d="M1152,293L1186,-54L886,35Z" fill="#e3cbb7" stroke="#e3cbb7" stroke-width="1.51"/><path d="M1193,662L1451,566L1152,293Z" fill="#ffb2a7" stroke="#ffb2a7" stroke-width="1.51"/><path d="M1532,947L1451,566L1193,662Z" fill="#ff9a9c" stroke="#ff9a9c" stroke-width="1.51"/><path d="M1532,947L1193,662L1202,967Z" fill="#ff9598" stroke="#ff9598" stroke-width="1.51"/><path d="M579,1585L930,1256L497,1182Z" fill="#feb3a5" stroke="#feb3a5" stroke-width="1.51"/><path d="M930,1256L890,1528L1163,1226Z" fill="#ffa09f" stroke="#ffa09f" stroke-width="1.51"/><path d="M-15,648L-117,968L297,969Z" fill="#e0bfb1" stroke="#e0bfb1" stroke-width="1.51"/><path d="M613,-15L250,-12L517,310Z" fill="#d4e8c4" stroke="#d4e8c4" stroke-width="1.51"/><path d="M245,279L-48,245L252,550Z" fill="#dae4c1" stroke="#dae4c1" stroke-width="1.51"/><path d="M213,1544L579,1585L497,1182Z" fill="#f5bca9" stroke="#f5bca9" stroke-width="1.51"/><path d="M213,1544L497,1182L242,1179Z" fill="#efbeab" stroke="#efbeab" stroke-width="1.51"/><path d="M1553,1283L1202,967L1163,1226Z" fill="#ff9297" stroke="#ff9297" stroke-width="1.51"/><path d="M1553,1283L1532,947L1202,967Z" fill="#ff8d94" stroke="#ff8d94" stroke-width="1.51"/><path d="M-15,648L-366,870L-117,968Z" fill="#dcc1b4" stroke="#dcc1b4" stroke-width="1.51"/><path d="M250,-12L-48,245L245,279Z" fill="#c8eac7" stroke="#c8eac7" stroke-width="1.51"/><path d="M-117,968L-69,1229L242,1179Z" fill="#debcb0" stroke="#debcb0" stroke-width="1.51"/><path d="M886,35L816,-281L613,-15Z" fill="#d8dac0" stroke="#d8dac0" stroke-width="1.51"/><path d="M613,-15L240,-291L250,-12Z" fill="#c4e9c8" stroke="#c4e9c8" stroke-width="1.51"/><path d="M1490,18L1186,-54L1152,293Z" fill="#e4c4b2" stroke="#e4c4b2" stroke-width="1.51"/><path d="M-69,1229L213,1544L242,1179Z" fill="#e5bdae" stroke="#e5bdae" stroke-width="1.51"/><path d="M1451,566L1549,255L1152,293Z" fill="#fbb8a8" stroke="#fbb8a8" stroke-width="1.51"/><path d="M1828,350L1549,255L1451,566Z" fill="#fcb4a6" stroke="#fcb4a6" stroke-width="1.51"/><path d="M1186,-54L816,-281L886,35Z" fill="#d9d0bc" stroke="#d9d0bc" stroke-width="1.51"/><path d="M890,1528L1190,1620L1163,1226Z" fill="#ff9b9d" stroke="#ff9b9d" stroke-width="1.51"/><path d="M579,1585L1190,1620L890,1528Z" fill="#ffa7a1" stroke="#ffa7a1" stroke-width="1.51"/><path d="M1532,947L1764,870L1451,566Z" fill="#ff9398" stroke="#ff9398" stroke-width="1.51"/><path d="M1190,1620L1553,1283L1163,1226Z" fill="#ff9297" stroke="#ff9297" stroke-width="1.51"/><path d="M-436,567L-366,870L-15,648Z" fill="#dbc8b9" stroke="#dbc8b9" stroke-width="1.51"/><path d="M250,-12L-74,24L-48,245Z" fill="#b6e8cb" stroke="#b6e8cb" stroke-width="1.51"/><path d="M240,-291L-74,24L250,-12Z" fill="#b3e8cc" stroke="#b3e8cc" stroke-width="1.51"/><path d="M816,-281L596,-321L613,-15Z" fill="#d5dfc2" stroke="#d5dfc2" stroke-width="1.51"/><path d="M-436,567L-15,648L-396,308Z" fill="#d8d8bf" stroke="#d8d8bf" stroke-width="1.51"/><path d="M-117,968L-427,1254L-69,1229Z" fill="#ddbcb0" stroke="#ddbcb0" stroke-width="1.51"/><path d="M1549,255L1490,18L1152,293Z" fill="#eec0ad" stroke="#eec0ad" stroke-width="1.51"/><path d="M1186,-54L1203,-306L816,-281Z" fill="#dacaba" stroke="#dacaba" stroke-width="1.51"/><path d="M1553,1283L1764,870L1532,947Z" fill="#ff8c94" stroke="#ff8c94" stroke-width="1.51"/><path d="M1549,255L1872,4L1490,18Z" fill="#e6bdae" stroke="#e6bdae" stroke-width="1.51"/><path d="M596,-321L240,-291L613,-15Z" fill="#cbe5c6" stroke="#cbe5c6" stroke-width="1.51"/><path d="M1764,870L1820,653L1451,566Z" fill="#ff9a9c" stroke="#ff9a9c" stroke-width="1.51"/><path d="M-396,308L-15,648L-48,245Z" fill="#d3e0c3" stroke="#d3e0c3" stroke-width="1.51"/><path d="M816,-281L1203,-306L596,-321Z" fill="#d9d5be" stroke="#d9d5be" stroke-width="1.51"/><path d="M1490,18L1203,-306L1186,-54Z" fill="#dcc2b4" stroke="#dcc2b4" stroke-width="1.51"/><path d="M-74,24L-396,308L-48,245Z" fill="#bfe9c9" stroke="#bfe9c9" stroke-width="1.51"/><path d="M-442,-30L-396,308L-74,24Z" fill="#b5e8cc" stroke="#b5e8cc" stroke-width="1.51"/><path d="M579,1585L-384,1617L1190,1620Z" fill="#f6bba9" stroke="#f6bba9" stroke-width="1.51"/><path d="M213,1544L-105,1591L579,1585Z" fill="#eabead" stroke="#eabead" stroke-width="1.51"/><path d="M-69,1229L-105,1591L213,1544Z" fill="#debcb0" stroke="#debcb0" stroke-width="1.51"/><path d="M-427,1254L-105,1591L-69,1229Z" fill="#ddbcb0" stroke="#ddbcb0" stroke-width="1.51"/><path d="M1490,18L1501,-369L1203,-306Z" fill="#ddbeb1" stroke="#ddbeb1" stroke-width="1.51"/><path d="M1820,653L1828,350L1451,566Z" fill="#ffaaa2" stroke="#ffaaa2" stroke-width="1.51"/><path d="M1190,1620L1573,1553L1553,1283Z" fill="#ff8c94" stroke="#ff8c94" stroke-width="1.51"/><path d="M1553,1283L1887,1273L1764,870Z" fill="#ff8c94" stroke="#ff8c94" stroke-width="1.51"/><path d="M-366,870L-427,1254L-117,968Z" fill="#ddbcb0" stroke="#ddbcb0" stroke-width="1.51"/><path d="M-436,567L-427,1254L-366,870Z" fill="#ddbcb0" stroke="#ddbcb0" stroke-width="1.51"/><path d="M240,-291L-39,-347L-74,24Z" fill="#ace7ce" stroke="#ace7ce" stroke-width="1.51"/><path d="M596,-321L-39,-347L240,-291Z" fill="#bce9ca" stroke="#bce9ca" stroke-width="1.51"/><path d="M1501,-369L-39,-347L596,-321Z" fill="#d6dfc2" stroke="#d6dfc2" stroke-width="1.51"/><path d="M1573,1553L1887,1273L1553,1283Z" fill="#ff8c94" stroke="#ff8c94" stroke-width="1.51"/><path d="M1764,870L2090,893L1820,653Z" fill="#ff9398" stroke="#ff9398" stroke-width="1.51"/><path d="M2160,229L1872,4L1828,350Z" fill="#efbeac" stroke="#efbeac" stroke-width="1.51"/><path d="M-377,-374L-442,-30L-74,24Z" fill="#a8e6ce" stroke="#a8e6ce" stroke-width="1.51"/><path d="M-396,308L-442,-30L-436,567Z" fill="#c9e7c7" stroke="#c9e7c7" stroke-width="1.51"/><path d="M1203,-306L1501,-369L596,-321Z" fill="#dbc9b9" stroke="#dbc9b9" stroke-width="1.51"/><path d="M1820,-322L1501,-369L1490,18Z" fill="#ddbcb0" stroke="#ddbcb0" stroke-width="1.51"/><path d="M1828,350L1872,4L1549,255Z" fill="#f0beab" stroke="#f0beab" stroke-width="1.51"/><path d="M2173,623L1828,350L1820,653Z" fill="#ffa8a1" stroke="#ffa8a1" stroke-width="1.51"/><path d="M-427,1254L-384,1617L-105,1591Z" fill="#ddbcb0" stroke="#ddbcb0" stroke-width="1.51"/><path d="M-105,1591L-384,1617L579,1585Z" fill="#dfbdb0" stroke="#dfbdb0" stroke-width="1.51"/><path d="M1887,1273L2090,893L1764,870Z" fill="#ff8c94" stroke="#ff8c94" stroke-width="1.51"/><path d="M1887,1273L2127,1298L2090,893Z" fill="#ff8c94" stroke="#ff8c94" stroke-width="1.51"/><path d="M1573,1553L1820,1606L1887,1273Z" fill="#ff8c94" stroke="#ff8c94" stroke-width="1.51"/><path d="M1190,1620L1820,1606L1573,1553Z" fill="#ff8c94" stroke="#ff8c94" stroke-width="1.51"/><path d="M2090,893L2173,623L1820,653Z" fill="#ff989b" stroke="#ff989b" stroke-width="1.51"/><path d="M-39,-347L-377,-374L-74,24Z" fill="#a8e6ce" stroke="#a8e6ce" stroke-width="1.51"/><path d="M1501,-369L-377,-374L-39,-347Z" fill="#c3eac8" stroke="#c3eac8" stroke-width="1.51"/><path d="M2149,-331L1820,-322L1872,4Z" fill="#ddbcb0" stroke="#ddbcb0" stroke-width="1.51"/><path d="M1872,4L1820,-322L1490,18Z" fill="#ddbcb0" stroke="#ddbcb0" stroke-width="1.51"/><path d="M2090,893L2127,1298L2173,623Z" fill="#ff8c94" stroke="#ff8c94" stroke-width="1.51"/><path d="M2168,1542L2127,1298L1887,1273Z" fill="#ff8c94" stroke="#ff8c94" stroke-width="1.51"/><path d="M2173,623L2160,229L1828,350Z" fill="#fdb4a6" stroke="#fdb4a6" stroke-width="1.51"/><path d="M2160,229L2115,39L1872,4Z" fill="#e6bdae" stroke="#e6bdae" stroke-width="1.51"/><path d="M1820,1606L2168,1542L1887,1273Z" fill="#ff8c94" stroke="#ff8c94" stroke-width="1.51"/><path d="M2127,1298L2168,1542L2173,623Z" fill="#ff8c94" stroke="#ff8c94" stroke-width="1.51"/><path d="M2160,229L2149,-331L2115,39Z" fill="#ddbcb0" stroke="#ddbcb0" stroke-width="1.51"/><path d="M2115,39L2149,-331L1872,4Z" fill="#ddbcb0" stroke="#ddbcb0" stroke-width="1.51"/><path d="M1820,-322L2149,-331L1501,-369Z" fill="#ddbcb0" stroke="#ddbcb0" stroke-width="1.51"/><path d="M2173,623L2149,-331L2160,229Z" fill="#edbeac" stroke="#edbeac" stroke-width="1.51"/></svg>