<svg xmlns="http://www.w3.org/2000/svg" width="1920" height="1200"><path d="M866,591L1081,838L1143,633Z" fill="#afe09c" stroke="#afe09c" stroke-width="1.51"/><path d="M866,591L809,934L1081,838Z" fill="#acd99a" stroke="#acd99a" stroke-width="1.51"/><path d="M1143,633L1193,331L866,591Z" fill="#c2dc9c" stroke="#c2dc9c" stroke-width="1.51"/><path d="M1081,838L1390,876L1143,633Z" fill="#98d196" stroke="#98d196" stroke-width="1.51"/><path d="M1143,633L1438,527L1193,331Z" fill="#b8d099" stroke="#b8d099" stroke-width="1.51"/><path d="M1105,1197L1390,876L1081,838Z" fill="#8dc999" stroke="#8dc999" stroke-width="1.51"/><path d="M866,591L557,877L809,934Z" fill="#bacc98" stroke="#bacc98" stroke-width="1.51"/><path d="M1193,331L784,310L866,591Z" fill="#d7d39e" stroke="#d7d39e" stroke-width="1.51"/><path d="M466,544L557,877L866,591Z" fill="#d1cd9c" stroke="#d1cd9c" stroke-width="1.51"/><path d="M1390,876L1438,527L1143,633Z" fill="#9bd397" stroke="#9bd397" stroke-width="1.51"/><path d="M809,934L1105,1197L1081,838Z" fill="#9cd39e" stroke="#9cd39e" stroke-width="1.51"/><path d="M828,1210L1105,1197L809,934Z" fill="#a6d2a9" stroke="#a6d2a9" stroke-width="1.51"/><path d="M546,1132L828,1210L809,934Z" fill="#b5c5a6" stroke="#b5c5a6" stroke-width="1.51"/><path d="M784,310L466,544L866,591Z" fill="#e0c99d" stroke="#e0c99d" stroke-width="1.51"/><path d="M1438,527L1376,299L1193,331Z" fill="#bfc097" stroke="#bfc097" stroke-width="1.51"/><path d="M1193,331L1076,8L784,310Z" fill="#d6c29e" stroke="#d6c29e" stroke-width="1.51"/><path d="M175,999L546,1132L557,877Z" fill="#c1b19e" stroke="#c1b19e" stroke-width="1.51"/><path d="M557,877L546,1132L809,934Z" fill="#b9bd9c" stroke="#b9bd9c" stroke-width="1.51"/><path d="M784,310L468,357L466,544Z" fill="#efb49c" stroke="#efb49c" stroke-width="1.51"/><path d="M1376,299L1076,8L1193,331Z" fill="#c9b99b" stroke="#c9b99b" stroke-width="1.51"/><path d="M784,310L471,-94L468,357Z" fill="#eea59d" stroke="#eea59d" stroke-width="1.51"/><path d="M1802,527L1682,330L1438,527Z" fill="#b2c5a0" stroke="#b2c5a0" stroke-width="1.51"/><path d="M1105,1197L1480,1205L1390,876Z" fill="#86c4a1" stroke="#86c4a1" stroke-width="1.51"/><path d="M1462,1463L1480,1205L1105,1197Z" fill="#86c4a9" stroke="#86c4a9" stroke-width="1.51"/><path d="M1076,8L827,-26L784,310Z" fill="#d3bea2" stroke="#d3bea2" stroke-width="1.51"/><path d="M828,1210L1089,1475L1105,1197Z" fill="#9fd4af" stroke="#9fd4af" stroke-width="1.51"/><path d="M728,1504L1089,1475L828,1210Z" fill="#aad1b0" stroke="#aad1b0" stroke-width="1.51"/><path d="M1376,299L1422,-25L1076,8Z" fill="#b7b49c" stroke="#b7b49c" stroke-width="1.51"/><path d="M1438,527L1682,330L1376,299Z" fill="#babb98" stroke="#babb98" stroke-width="1.51"/><path d="M1733,976L1438,527L1390,876Z" fill="#87c596" stroke="#87c596" stroke-width="1.51"/><path d="M185,357L207,630L466,544Z" fill="#dfb99f" stroke="#dfb99f" stroke-width="1.51"/><path d="M466,544L207,630L557,877Z" fill="#d4bf9c" stroke="#d4bf9c" stroke-width="1.51"/><path d="M185,357L466,544L468,357Z" fill="#ecad9d" stroke="#ecad9d" stroke-width="1.51"/><path d="M1480,1205L1733,976L1390,876Z" fill="#7dbf9e" stroke="#7dbf9e" stroke-width="1.51"/><path d="M1733,976L1802,527L1438,527Z" fill="#96cfa0" stroke="#96cfa0" stroke-width="1.51"/><path d="M1682,330L1422,-25L1376,299Z" fill="#b9b099" stroke="#b9b099" stroke-width="1.51"/><path d="M1076,8L1021,-371L827,-26Z" fill="#c4c2a4" stroke="#c4c2a4" stroke-width="1.51"/><path d="M546,1132L728,1504L828,1210Z" fill="#b9c3ae" stroke="#b9c3ae" stroke-width="1.51"/><path d="M465,1482L728,1504L546,1132Z" fill="#c2baad" stroke="#c2baad" stroke-width="1.51"/><path d="M207,630L175,999L557,877Z" fill="#bfb399" stroke="#bfb399" stroke-width="1.51"/><path d="M207,630L-64,948L175,999Z" fill="#afb09b" stroke="#afb09b" stroke-width="1.51"/><path d="M138,6L185,357L468,357Z" fill="#eb9c9f" stroke="#eb9c9f" stroke-width="1.51"/><path d="M1462,1463L1635,1300L1480,1205Z" fill="#7fc1ac" stroke="#7fc1ac" stroke-width="1.51"/><path d="M1480,1205L1635,1300L1733,976Z" fill="#80c1ad" stroke="#80c1ad" stroke-width="1.51"/><path d="M2109,1502L1462,1463L1089,1475Z" fill="#80c1ad" stroke="#80c1ad" stroke-width="1.51"/><path d="M1089,1475L1462,1463L1105,1197Z" fill="#90caab" stroke="#90caab" stroke-width="1.51"/><path d="M175,999L250,1212L546,1132Z" fill="#bdb1a8" stroke="#bdb1a8" stroke-width="1.51"/><path d="M250,1212L465,1482L546,1132Z" fill="#c5b2ae" stroke="#c5b2ae" stroke-width="1.51"/><path d="M827,-26L471,-94L784,310Z" fill="#dcada1" stroke="#dcada1" stroke-width="1.51"/><path d="M903,-383L471,-94L827,-26Z" fill="#d3b0a3" stroke="#d3b0a3" stroke-width="1.51"/><path d="M1802,527L1960,229L1682,330Z" fill="#c0baa8" stroke="#c0baa8" stroke-width="1.51"/><path d="M1682,330L1736,-16L1422,-25Z" fill="#b0aea2" stroke="#b0aea2" stroke-width="1.51"/><path d="M2000,837L1970,578L1802,527Z" fill="#9dd3af" stroke="#9dd3af" stroke-width="1.51"/><path d="M2000,837L1802,527L1733,976Z" fill="#8dc8a7" stroke="#8dc8a7" stroke-width="1.51"/><path d="M2116,1301L2000,837L1733,976Z" fill="#81c2b3" stroke="#81c2b3" stroke-width="1.51"/><path d="M1461,-335L1021,-371L1076,8Z" fill="#b5b8a0" stroke="#b5b8a0" stroke-width="1.51"/><path d="M1960,229L1736,-16L1682,330Z" fill="#bbb0a9" stroke="#bbb0a9" stroke-width="1.51"/><path d="M1461,-335L1076,8L1422,-25Z" fill="#acb19e" stroke="#acb19e" stroke-width="1.51"/><path d="M2103,8L1960,229L2391,71Z" fill="#b5b0b1" stroke="#b5b0b1" stroke-width="1.51"/><path d="M1970,578L1960,229L1802,527Z" fill="#b8c4ae" stroke="#b8c4ae" stroke-width="1.51"/><path d="M1635,1300L2116,1301L1733,976Z" fill="#83c2bb" stroke="#83c2bb" stroke-width="1.51"/><path d="M1462,1463L1766,1452L1635,1300Z" fill="#80c1b0" stroke="#80c1b0" stroke-width="1.51"/><path d="M2109,1502L1766,1452L1462,1463Z" fill="#82c2b9" stroke="#82c2b9" stroke-width="1.51"/><path d="M250,1212L190,1433L465,1482Z" fill="#bdb1af" stroke="#bdb1af" stroke-width="1.51"/><path d="M175,999L-159,1212L250,1212Z" fill="#afafad" stroke="#afafad" stroke-width="1.51"/><path d="M-200,578L-64,948L207,630Z" fill="#b8b9a1" stroke="#b8b9a1" stroke-width="1.51"/><path d="M1021,-371L903,-383L827,-26Z" fill="#c8bfa4" stroke="#c8bfa4" stroke-width="1.51"/><path d="M-159,1212L190,1433L250,1212Z" fill="#b0afb2" stroke="#b0afb2" stroke-width="1.51"/><path d="M471,-94L138,6L468,357Z" fill="#e39ba1" stroke="#e39ba1" stroke-width="1.51"/><path d="M185,357L-200,578L207,630Z" fill="#d1b9a3" stroke="#d1b9a3" stroke-width="1.51"/><path d="M227,-235L138,6L471,-94Z" fill="#d69aa4" stroke="#d69aa4" stroke-width="1.51"/><path d="M1713,-307L1422,-25L1736,-16Z" fill="#a6ada5" stroke="#a6ada5" stroke-width="1.51"/><path d="M1713,-307L1461,-335L1422,-25Z" fill="#a5aca0" stroke="#a5aca0" stroke-width="1.51"/><path d="M1021,-371L2360,-322L903,-383Z" fill="#a5ad9c" stroke="#a5ad9c" stroke-width="1.51"/><path d="M-196,321L-200,578L185,357Z" fill="#d7aba2" stroke="#d7aba2" stroke-width="1.51"/><path d="M138,6L-196,321L185,357Z" fill="#dd9ba2" stroke="#dd9ba2" stroke-width="1.51"/><path d="M408,-418L227,-235L471,-94Z" fill="#db9aa3" stroke="#db9aa3" stroke-width="1.51"/><path d="M1968,-237L1713,-307L1736,-16Z" fill="#a8aeae" stroke="#a8aeae" stroke-width="1.51"/><path d="M-172,-6L-196,321L138,6Z" fill="#d099a6" stroke="#d099a6" stroke-width="1.51"/><path d="M-64,948L-159,1212L175,999Z" fill="#a7ada8" stroke="#a7ada8" stroke-width="1.51"/><path d="M-491,992L-159,1212L-64,948Z" fill="#a7ada8" stroke="#a7ada8" stroke-width="1.51"/><path d="M903,-383L408,-418L471,-94Z" fill="#dba4a2" stroke="#dba4a2" stroke-width="1.51"/><path d="M1766,1452L2116,1301L1635,1300Z" fill="#83c2bc" stroke="#83c2bc" stroke-width="1.51"/><path d="M2436,380L1960,229L1970,578Z" fill="#bebeae" stroke="#bebeae" stroke-width="1.51"/><path d="M1960,229L2103,8L1736,-16Z" fill="#b2afb2" stroke="#b2afb2" stroke-width="1.51"/><path d="M2361,658L1970,578L2000,837Z" fill="#98d0ad" stroke="#98d0ad" stroke-width="1.51"/><path d="M2103,8L1968,-237L1736,-16Z" fill="#aaaeb4" stroke="#aaaeb4" stroke-width="1.51"/><path d="M-97,-307L138,6L227,-235Z" fill="#cb99a7" stroke="#cb99a7" stroke-width="1.51"/><path d="M-97,-307L-172,-6L138,6Z" fill="#c698a8" stroke="#c698a8" stroke-width="1.51"/><path d="M-481,310L-200,578L-196,321Z" fill="#d9a9a2" stroke="#d9a9a2" stroke-width="1.51"/><path d="M-481,310L-369,686L-200,578Z" fill="#cdb9a4" stroke="#cdb9a4" stroke-width="1.51"/><path d="M-200,578L-369,686L-64,948Z" fill="#b6b8a1" stroke="#b6b8a1" stroke-width="1.51"/><path d="M2381,970L2361,658L2000,837Z" fill="#88c6aa" stroke="#88c6aa" stroke-width="1.51"/><path d="M2116,1301L2381,970L2000,837Z" fill="#81c2b2" stroke="#81c2b2" stroke-width="1.51"/><path d="M1766,1452L2109,1502L2116,1301Z" fill="#83c3c0" stroke="#83c3c0" stroke-width="1.51"/><path d="M728,1504L2109,1502L1089,1475Z" fill="#89c6aa" stroke="#89c6aa" stroke-width="1.51"/><path d="M2347,1241L2381,970L2116,1301Z" fill="#83c2bd" stroke="#83c2bd" stroke-width="1.51"/><path d="M-159,1212L-190,1549L190,1433Z" fill="#aaaeb4" stroke="#aaaeb4" stroke-width="1.51"/><path d="M190,1433L-190,1549L465,1482Z" fill="#b4b0b2" stroke="#b4b0b2" stroke-width="1.51"/><path d="M465,1482L-190,1549L728,1504Z" fill="#c0b1af" stroke="#c0b1af" stroke-width="1.51"/><path d="M728,1504L2294,1524L2109,1502Z" fill="#81c2b5" stroke="#81c2b5" stroke-width="1.51"/><path d="M-454,1260L-190,1549L-159,1212Z" fill="#aaaeb4" stroke="#aaaeb4" stroke-width="1.51"/><path d="M2294,1524L2347,1241L2116,1301Z" fill="#83c3c0" stroke="#83c3c0" stroke-width="1.51"/><path d="M2381,970L2436,380L2361,658Z" fill="#9bd1ae" stroke="#9bd1ae" stroke-width="1.51"/><path d="M2361,658L2436,380L1970,578Z" fill="#accfaf" stroke="#accfaf" stroke-width="1.51"/><path d="M2103,8L2360,-322L1968,-237Z" fill="#aaaeb4" stroke="#aaaeb4" stroke-width="1.51"/><path d="M408,-418L-97,-307L227,-235Z" fill="#d199a6" stroke="#d199a6" stroke-width="1.51"/><path d="M-481,310L-491,992L-369,686Z" fill="#bebda3" stroke="#bebda3" stroke-width="1.51"/><path d="M-481,310L-196,321L-510,38Z" fill="#db9aa3" stroke="#db9aa3" stroke-width="1.51"/><path d="M-369,686L-491,992L-64,948Z" fill="#a7ae9c" stroke="#a7ae9c" stroke-width="1.51"/><path d="M-510,38L-196,321L-172,-6Z" fill="#d199a6" stroke="#d199a6" stroke-width="1.51"/><path d="M2436,380L2391,71L1960,229Z" fill="#c1b2ae" stroke="#c1b2ae" stroke-width="1.51"/><path d="M2109,1502L2294,1524L2116,1301Z" fill="#83c3c0" stroke="#83c3c0" stroke-width="1.51"/><path d="M-405,1566L2294,1524L728,1504Z" fill="#abd0b0" stroke="#abd0b0" stroke-width="1.51"/><path d="M-491,992L-454,1260L-159,1212Z" fill="#a9aeb0" stroke="#a9aeb0" stroke-width="1.51"/><path d="M-481,310L-510,38L-491,992Z" fill="#d4aea3" stroke="#d4aea3" stroke-width="1.51"/><path d="M-347,-314L-510,38L-172,-6Z" fill="#c698a8" stroke="#c698a8" stroke-width="1.51"/><path d="M-454,1260L-405,1566L-190,1549Z" fill="#aaaeb4" stroke="#aaaeb4" stroke-width="1.51"/><path d="M-190,1549L-405,1566L728,1504Z" fill="#adafb3" stroke="#adafb3" stroke-width="1.51"/><path d="M408,-418L-347,-314L-97,-307Z" fill="#c698a8" stroke="#c698a8" stroke-width="1.51"/><path d="M-97,-307L-347,-314L-172,-6Z" fill="#c698a8" stroke="#c698a8" stroke-width="1.51"/><path d="M2391,71L2360,-322L2103,8Z" fill="#aaaeb4" stroke="#aaaeb4" stroke-width="1.51"/><path d="M1968,-237L2360,-322L1713,-307Z" fill="#aaaeb4" stroke="#aaaeb4" stroke-width="1.51"/><path d="M1713,-307L2360,-322L1461,-335Z" fill="#a9aeb0" stroke="#a9aeb0" stroke-width="1.51"/><path d="M1461,-335L2360,-322L1021,-371Z" fill="#a6ada5" stroke="#a6ada5" stroke-width="1.51"/><path d="M903,-383L2360,-322L408,-418Z" fill="#b3b69f" stroke="#b3b69f" stroke-width="1.51"/><path d="M2436,380L2360,-322L2391,71Z" fill="#aeafb3" stroke="#aeafb3" stroke-width="1.51"/></svg>