<svg height="512pt" viewBox="-13 0 512 512.00003" width="512pt" xmlns="http://www.w3.org/2000/svg"><path d="m71.667969 345.773438c-11.539063 0-23.332031-5.949219-26.324219-18.679688-2.152344-9.140625-1.328125-17.558594 2.355469-24.875-10.320313 3.769531-18.90625 10.421875-20.820313 16.574219-1.265625 4.074219-5.597656 6.351562-9.671875 5.082031s-6.351562-5.597656-5.082031-9.671875c5.445312-17.507813 32.460938-32.015625 55.617188-30.363281 6.40625-3.074219 13.890624-5.28125 22.027343-6.441406 12.746094-1.820313 26.222657-.949219 36.96875 2.382812 12.78125 3.964844 20.941407 11.191406 22.976563 20.34375.925781 4.164062-1.703125 8.292969-5.867188 9.21875-4.167968.925781-8.292968-1.699219-9.21875-5.867188-.757812-3.40625-5.417968-6.75-12.46875-8.933593-8.84375-2.746094-20.6875-3.359375-31.703125-1.578125 6.148438 5.796875 9.746094 14.136718 10.316407 24.507812.785156 14.285156-9.230469 25.78125-24.363282 27.960938-1.558594.226562-3.148437.339844-4.742187.339844zm-1.003907-45.976563c-1.71875 1.066406-3.289062 2.246094-4.679687 3.539063-5.714844 5.332031-7.546875 11.945312-5.601563 20.21875 1.433594 6.085937 9.050782 7.277343 13.824219 6.585937 2.742188-.394531 11.652344-2.414063 11.136719-11.820313-.582031-10.527343-5.390625-16.609374-14.679688-18.523437zm0 0" fill="#c35f58"/><path d="m473.621094 324.398438-17.84375-5.714844c-4.269532-1.367188-7.585938-4.738282-8.929688-9.011719-20.53125-65.289063-96.773437-95.273437-173.515625-95.273437-89.78125 0-162.566406 41.027343-162.566406 131.632812 0 52.21875 25.613281 88.792969 65.183594 109.917969.972656.519531 1.664062 1.441406 1.875 2.527343l6.167969 46.046876c.820312 4.335937 4.613281 7.476562 9.027343 7.476562h29.933594c4.417969 0 8.207031-3.140625 9.027344-7.476562l7.542969-25.601563c.355468-1.890625 2.117187-3.160156 4.027343-2.941406 9.652344 1.121093 19.605469 1.683593 29.78125 1.683593 13.597657 0 27.179688-1.003906 40.4375-3.007812 1.949219-.292969 3.785157.988281 4.152344 2.921875l7.792969 26.941406c.820312 4.339844 4.613281 7.480469 9.027344 7.480469h29.9375c4.414062 0 8.203124-3.140625 9.027343-7.480469l6.511719-48.75c.207031-1.101562.914062-2.039062 1.910156-2.558593 23.5-12.21875 42.9375-29.027344 55.339844-50.453126 1.648438-2.855468 4.261719-5.03125 7.40625-6.039062l28.746094-9.207031c7.285156-2.335938 12.230468-9.109375 12.230468-16.761719v-29.585938c0-7.652343-4.945312-14.429687-12.230468-16.765624zm0 0" fill="#ff94a6"/><path d="m473.621094 324.398438-17.84375-5.714844c-4.273438-1.367188-7.585938-4.742188-8.933594-9.023438-12.992188-41.308594-48.292969-68.480468-91.910156-82.867187-5.550782-1.832031-9.507813 5.496093-4.917969 9.113281 18.113281 14.273438 31.996094 32.472656 38.925781 54.957031 31.476563 102.097657-67.261718 156.460938-67.617187 156.515625-16.210938 2.449219-36.925781 3.679688-53.550781 3.679688-12.433594 0-24.605469-.6875-36.410157-2.058594-2.332031-.273438-4.484375 1.285156-4.921875 3.59375l-9.21875 31.296875c-1.003906 5.300781-5.636718 9.140625-11.035156 9.140625h-23.734375l1.539063 11.488281c.820312 4.335938 4.613281 7.476563 9.027343 7.476563h29.9375c4.414063 0 8.203125-3.140625 9.023438-7.476563l7.542969-25.601562c.359374-1.890625 2.117187-3.160157 4.027343-2.941407 9.65625 1.121094 19.609375 1.683594 29.78125 1.683594 13.597657 0 27.179688-1.003906 40.4375-3.007812 1.304688-.195313 2.546875.320312 3.339844 1.257812.160156.183594.292969.390625.414063.601563.046874.082031.089843.160156.128906.246093.035156.074219.066406.152344.097656.234376.070312.1875.132812.378906.171875.582031l7.792969 26.941406c.820312 4.339844 4.613281 7.480469 9.027344 7.480469h29.9375c4.414062 0 8.203124-3.140625 9.023437-7.480469l1.535156-11.484375 4.980469-37.265625c.207031-1.101563.914062-2.039063 1.910156-2.554687 23.507813-12.226563 42.957032-29.046876 55.355469-50.492188 1.644531-2.84375 4.257813-5 7.386719-6.003906l28.746094-9.207032c7.289062-2.332031 12.234374-9.109374 12.234374-16.761718v-29.585938c0-7.648437-4.945312-14.425781-12.230468-16.761718zm0 0" fill="#f4849c"/><path d="m343.066406 230.378906c.910156-4.324218 3.902344-7.914062 7.917969-9.753906 15.429687-7.0625 59.15625-26.679688 69.261719-21.386719 12.65625 6.628907 4.859375 72.886719-14.425782 83.808594-18.625 10.550781-75.925781 9.84375-62.753906-52.667969zm0 0" fill="#f4849c"/><path d="m399.472656 352.121094c-11.863281 0-22.273437-8.699219-25.3125-21.148438-1.011718-4.148437 1.53125-8.328125 5.675782-9.339844 4.148437-1.011718 8.324218 1.527344 9.335937 5.675782 1.347656 5.507812 5.582031 9.359375 10.300781 9.359375 4.546875 0 8.738282-3.675781 10.1875-8.9375 1.132813-4.117188 5.386719-6.53125 9.5-5.398438 4.113282 1.136719 6.53125 5.386719 5.398438 9.503907-3.292969 11.941406-13.609375 20.285156-25.085938 20.285156zm0 0" fill="#545464"/><path d="m215.90625 275.757812c-2.628906 0-5.195312-1.34375-6.640625-3.769531-2.1875-3.664062-.988281-8.40625 2.675781-10.59375 24.828125-14.816406 53.371094-17.292969 80.375-6.976562 3.984375 1.519531 5.980469 5.988281 4.460938 9.972656-1.523438 3.988281-5.992188 5.984375-9.976563 4.460937-22.492187-8.589843-46.265625-6.527343-66.941406 5.8125-1.238281.742188-2.605469 1.09375-3.953125 1.09375zm0 0" fill="#ffd2dc"/><path d="m246.457031 59.789062c-35.566406-2.371093-66.316406 24.539063-68.6875 60.105469-2.371093 35.5625 24.539063 66.316407 60.101563 68.683594 35.566406 2.371094 66.316406-24.535156 68.6875-60.101563 2.371094-35.5625-24.539063-66.316406-60.101563-68.6875zm0 0" fill="#fdbd37"/><path d="m246.453125 59.796875c-10.5625-.707031-20.695313 1.191406-29.796875 5.113281 24.410156 10.515625 40.734375 35.542969 38.867188 63.570313-1.667969 25-17.363282 45.703125-38.890626 54.988281 6.5625 2.824219 13.703126 4.613281 21.238282 5.117188 35.566406 2.367187 66.316406-24.539063 68.6875-60.101563 2.371094-35.566406-24.539063-66.320313-60.105469-68.6875zm0 0" fill="#fa9a39"/><path d="m179.515625 98.105469c-10.691406-.714844-22.839844-1.519531-29.535156-1.964844-3.277344-.21875-6.328125-1.726563-8.515625-4.230469l-.113282-.128906c-3.613281-4.125-3.847656-12.457031-.789062-17.007812l36.101562-31.59375 22.582032 3.722656 15.558594 13.09375s27.523437 21.203125 37.796874 25.710937c2.578126 1.128907 18.757813-5.863281 11.097657-16.628906-9.050781-12.46875-29.125-41.765625-34.355469-49.417969-3.585938-5.25-9.171875-8.796875-15.449219-9.8125l-57.460937-9.320312c-8.28125-1.34375-16.777344-.105469-24.335938 3.542968-2.929687 1.414063-6.285156 3.015626-9.90625 4.722657-3.507812 1.652343-7.265625 3.398437-11.125 5.15625-7.320312 3.335937-14.996094 6.707031-22.011718 9.554687-7.503907 3.042969-14.257813 5.480469-19.023438 6.625l-47.132812-3.144531-5.441407 81.605469 22.695313 1.511718c4.265625.285157 8.390625 1.644532 11.988281 3.949219l30.632813 17.832031c9.671874 5.554688 20.742187 8.214844 31.882812 7.660157l27.378906-1.367188 70.128906 4.675781c8.082032.539063 14.84375-2.140624 15.382813-10.222656 2.492187-14.175781-25.972656-33.054687-48.03125-34.523437zm0 0" fill="#fed6a6"/><path d="m266.230469 136.597656c-.90625-3.484375-2.746094-6.730468-5.367188-9.273437-6.207031-6.027344-14.234375-9-21.359375-13.679688-5.25-3.449219-9.480468-10.195312-4.207031-15.78125 4.695313-4.976562 14.136719-2.675781 17.980469 2.265625 2.164062 2.78125 3.542968 6.734375 4.148437 11.855469.070313.585937.539063 1.046875 1.125 1.085937l4.265625.285157c.671875.042969 1.25-.460938 1.296875-1.132813l1.382813-20.800781c.046875-.667969-.460938-1.25-1.128906-1.292969l-5.234376-.351562c-.671874-.042969-1.25.464844-1.296874 1.132812l-.179688 2.695313c-2.222656-1.78125-4.726562-3.144531-7.519531-4.085938l.597656-7.894531c.113281-1.460938-.992187-2.730469-2.453125-2.828125l-4.023438-.269531c-1.453124-.097656-2.710937 1.003906-2.808593 2.457031 0 0-.460938 6.953125-.464844 6.953125-9.058594-.160156-17.777344 3.925781-20.4375 13.203125-4.078125 14.210937 7.738281 24.710937 19.144531 30.351563 4.523438 2.234374 10.976563 4.457031 13.113282 9.472656 1.609374 3.773437-.066407 8.476562-3.394532 10.875-5.625 4.050781-14.460937 1.761718-18.964844-2.96875-2.648437-2.785156-4.289062-6.769532-4.917968-11.957032-.070313-.585937-.539063-1.046874-1.128906-1.085937l-4.265626-.28125c-.667968-.046875-1.25.460937-1.292968 1.128906l-1.386719 20.800781c-.046875.671876.460937 1.25 1.132813 1.296876l5.582031.371093c.671875.042969 1.25-.460937 1.296875-1.132812 0 0 .175781-2.664063.175781-2.664063 3.53125 2.375 7.484375 4.070313 11.636719 5.003906-.035156 2.992188-.296875 5.992188-.472656 8.980469-.082032 1.445313 1.011718 2.6875 2.457031 2.78125l3.839843.257813c1.449219.097656 2.703126-.996094 2.804688-2.445313 0 0 .632812-8.949219.632812-8.949219 8.414063-.597656 16.320313-4.839843 19.269532-13.15625 1.296875-3.644531 1.375-7.566406.421875-11.222656zm0 0" fill="#e8f3f9"/><path d="m179.515625 98.105469c-10.691406-.714844-22.839844-1.519531-29.535156-1.964844-3.277344-.21875-6.328125-1.726563-8.515625-4.230469l-.113282-.128906c-.835937-.953125-1.484374-2.140625-1.960937-3.449219l-24.734375 1.234375c-11.140625.554688-22.207031-2.105468-31.882812-7.664062l-30.628907-17.828125c-3.601562-2.308594-7.726562-3.664063-11.992187-3.949219l-19.375-1.292969-3.316406 49.757813 22.695312 1.511718c4.265625.285157 8.390625 1.640626 11.988281 3.949219l30.632813 17.828125c9.671875 5.558594 20.738281 8.21875 31.878906 7.664063l27.378906-1.367188 70.132813 4.675781c8.082031.539063 14.839843-2.140624 15.378906-10.222656 2.492187-14.175781-25.972656-33.054687-48.03125-34.523437zm0 0" fill="#efc79c"/><path d="m0 116.484375v-97.429687c0-3.613282 2.925781-6.539063 6.539062-6.539063h26.894532c3.613281 0 6.539062 2.925781 6.539062 6.539063v97.429687c0 3.613281-2.925781 6.539063-6.539062 6.539063h-26.898438c-3.609375 0-6.535156-2.925782-6.535156-6.539063zm0 0" fill="#fc6a58"/><path d="m0 116.484375c0 3.613281 2.925781 6.539063 6.539062 6.539063h26.894532c3.613281 0 6.539062-2.925782 6.539062-6.539063v-44.347656h-39.972656zm0 0" fill="#e35052"/><path d="m244.257812 78.527344 4.023438.269531c1.464844.097656 2.566406 1.367187 2.457031 2.828125l-.230469 3.050781c.75.394531 1.464844.753907 2.097657 1.027344 2.574219 1.132813 18.757812-5.859375 11.097656-16.625-1.484375-2.046875-3.269531-4.546875-5.234375-7.328125-3.867188-1.007812-7.878906-1.679688-12.011719-1.957031-9.40625-.625-18.46875.8125-26.765625 3.902343 5.453125 4.089844 14.535156 10.765626 22.308594 15.847657.515625-.667969 1.347656-1.074219 2.257812-1.015625zm0 0" fill="#fa9a39"/></svg>